<svg width="197" height="37" viewBox="0 0 197 37" fill="none" xmlns="http://www.w3.org/2000/svg">
<mask id="mask0_1_229" style="mask-type:alpha" maskUnits="userSpaceOnUse" x="0" y="3" width="28" height="31">
<path d="M8.89416 29.8648C8.89416 31.866 7.27185 33.4883 5.27063 33.4883C3.26941 33.4883 1.6471 31.866 1.6471 29.8648C1.6471 27.8636 3.26941 26.2412 5.27063 26.2412C7.27185 26.2412 8.89416 27.8636 8.89416 29.8648Z" fill="#C4C4C4"/>
<path d="M26.3531 29.8648C26.3531 31.866 24.7308 33.4883 22.7296 33.4883C20.7284 33.4883 19.1061 31.866 19.1061 29.8648C19.1061 27.8636 20.7284 26.2412 22.7296 26.2412C24.7308 26.2412 26.3531 27.8636 26.3531 29.8648Z" fill="#C4C4C4"/>
<path fill-rule="evenodd" clip-rule="evenodd" d="M25.1913 27.2058C25.4382 27.4344 25.4094 27.8209 25.1508 28.0363C23.7802 29.1779 22.0174 29.8646 20.0941 29.8646H19.7649C19.401 29.8646 19.0998 29.5671 19.1652 29.2091C19.4737 27.5209 20.9522 26.2412 22.7296 26.2412C23.68 26.2412 24.545 26.6071 25.1913 27.2058ZM27.0987 25.6282C26.8986 26.0093 26.3844 26.043 26.0504 25.7717C25.144 25.0354 23.9883 24.5941 22.7296 24.5941C20.0414 24.5941 17.8233 26.6066 17.4996 29.2071C17.4547 29.5682 17.164 29.8646 16.8002 29.8646H11.2C10.8361 29.8646 10.5455 29.5682 10.5006 29.2071C10.1769 26.6066 7.95876 24.5941 5.27059 24.5941C4.0118 24.5941 2.85608 25.0354 1.94969 25.7717C1.61563 26.0431 1.10145 26.0094 0.901402 25.6283C0.325709 24.5317 0 23.2833 0 21.9588V20.3116C0 19.9478 0.294965 19.6528 0.658823 19.6528H27.3412C27.705 19.6528 28 19.9478 28 20.3116V21.9588C28 23.2832 27.6743 24.5316 27.0987 25.6282ZM28 17.3469C28 17.7108 27.705 18.0057 27.3412 18.0057H0.658824C0.294965 18.0057 0 17.7108 0 17.3469V13.394C0 13.0301 0.294965 12.7352 0.658823 12.7352H27.3412C27.705 12.7352 28 13.0301 28 13.394V17.3469ZM7.90588 3.5117C3.883 3.5117 0.561907 6.51639 0.0643695 10.404C0.0168356 10.7754 0.318678 11.0881 0.693122 11.0881H27.3069C27.6813 11.0881 27.9832 10.7754 27.9356 10.404C27.4381 6.51639 24.117 3.5117 20.0941 3.5117H7.90588ZM5.27059 26.2412C7.04795 26.2412 8.52644 27.5209 8.83496 29.2091C8.90037 29.5671 8.59914 29.8646 8.23528 29.8646H7.90588C5.98268 29.8646 4.21987 29.1779 2.84928 28.0363C2.59074 27.821 2.56193 27.4345 2.80878 27.2059C3.45509 26.6072 4.3201 26.2412 5.27059 26.2412Z" fill="#C4C4C4"/>
</mask>
<g mask="url(#mask0_1_229)">
<rect x="-1.6471" y="1.20587" width="33.6" height="10.8706" fill="url(#paint0_linear_1_229)"/>
<rect x="-1.6471" y="18.9941" width="33.6" height="16.4706" fill="#FFA833"/>
<rect x="-1.6471" y="12.0765" width="33.6" height="7.24706" rx="3.62353" fill="#F17228"/>
<rect x="-23.0587" y="26.2412" width="31.9529" height="7.24706" fill="#F58D00"/>
<rect x="19.1061" y="26.2412" width="31.9529" height="7.24706" fill="#F58D00"/>
<ellipse cx="8.11249" cy="6.32314" rx="1" ry="0.5" transform="rotate(-20.8548 8.11249 6.32314)" fill="white"/>
<ellipse cx="14" cy="5.99998" rx="1" ry="0.5" fill="white"/>
<ellipse cx="19.1176" cy="6.41224" rx="1" ry="0.5" transform="rotate(28.1155 19.1176 6.41224)" fill="white"/>
</g>
<path d="M41.8955 30V9.71615H54.6818V13.5738H46.4687V18.2715H53.4996V22.1291H46.4687V30H41.8955ZM63.1386 30.3733C61.832 30.3733 60.598 30.0622 59.4365 29.44C58.2958 28.7971 57.3729 27.8741 56.6677 26.6712C55.9626 25.4475 55.61 23.9854 55.61 22.2847C55.61 20.5632 55.9626 19.1011 56.6677 17.8981C57.3729 16.6952 58.2958 15.7826 59.4365 15.1604C60.598 14.5175 61.832 14.196 63.1386 14.196C64.4453 14.196 65.6689 14.5175 66.8096 15.1604C67.9504 15.7826 68.8733 16.6952 69.5785 17.8981C70.2836 19.1011 70.6362 20.5632 70.6362 22.2847C70.6362 23.9854 70.2836 25.4475 69.5785 26.6712C68.8733 27.8741 67.9504 28.7971 66.8096 29.44C65.6689 30.0622 64.4453 30.3733 63.1386 30.3733ZM63.1386 26.6712C64.072 26.6712 64.7771 26.2771 65.2541 25.489C65.7312 24.6802 65.9697 23.612 65.9697 22.2847C65.9697 20.9366 65.7312 19.8684 65.2541 19.0803C64.7771 18.2922 64.072 17.8981 63.1386 17.8981C62.1846 17.8981 61.4691 18.2922 60.992 19.0803C60.5358 19.8684 60.3076 20.9366 60.3076 22.2847C60.3076 23.612 60.5358 24.6802 60.992 25.489C61.4691 26.2771 62.1846 26.6712 63.1386 26.6712ZM79.6173 30.3733C78.3107 30.3733 77.0767 30.0622 75.9152 29.44C74.7745 28.7971 73.8516 27.8741 73.1464 26.6712C72.4412 25.4475 72.0887 23.9854 72.0887 22.2847C72.0887 20.5632 72.4412 19.1011 73.1464 17.8981C73.8516 16.6952 74.7745 15.7826 75.9152 15.1604C77.0767 14.5175 78.3107 14.196 79.6173 14.196C80.924 14.196 82.1476 14.5175 83.2883 15.1604C84.429 15.7826 85.352 16.6952 86.0571 17.8981C86.7623 19.1011 87.1149 20.5632 87.1149 22.2847C87.1149 23.9854 86.7623 25.4475 86.0571 26.6712C85.352 27.8741 84.429 28.7971 83.2883 29.44C82.1476 30.0622 80.924 30.3733 79.6173 30.3733ZM79.6173 26.6712C80.5506 26.6712 81.2558 26.2771 81.7328 25.489C82.2098 24.6802 82.4484 23.612 82.4484 22.2847C82.4484 20.9366 82.2098 19.8684 81.7328 19.0803C81.2558 18.2922 80.5506 17.8981 79.6173 17.8981C78.6633 17.8981 77.9477 18.2922 77.4707 19.0803C77.0144 19.8684 76.7863 20.9366 76.7863 22.2847C76.7863 23.612 77.0144 24.6802 77.4707 25.489C77.9477 26.2771 78.6633 26.6712 79.6173 26.6712ZM94.976 30.3733C93.068 30.3733 91.5332 29.6578 90.3717 28.2267C89.231 26.7749 88.6607 24.7942 88.6607 22.2847C88.6607 20.6047 88.9614 19.1633 89.5629 17.9604C90.1851 16.7367 90.9836 15.8034 91.9584 15.1604C92.9539 14.5175 93.9909 14.196 95.0694 14.196C95.9197 14.196 96.6353 14.3412 97.216 14.6316C97.7967 14.9219 98.3463 15.316 98.8648 15.8138L98.6782 13.4494V8.19175H103.251V30H99.5181L99.207 28.4756H99.0826C98.5433 29.0148 97.9108 29.4711 97.1849 29.8444C96.459 30.197 95.7227 30.3733 94.976 30.3733ZM96.1582 26.6401C96.656 26.6401 97.1019 26.5364 97.496 26.329C97.9108 26.1216 98.3048 25.7586 98.6782 25.2401V18.9248C98.2841 18.5514 97.8589 18.2922 97.4026 18.147C96.9671 18.0018 96.5419 17.9292 96.1271 17.9292C95.4012 17.9292 94.7583 18.2818 94.1983 18.987C93.6383 19.6714 93.3583 20.7499 93.3583 22.2225C93.3583 23.7365 93.5968 24.8564 94.0738 25.5824C94.5716 26.2875 95.2664 26.6401 96.1582 26.6401Z" fill="#F17228"/>
<path d="M108.703 30L104.939 9.71615H109.636L111.036 19.2048C111.161 20.2625 111.296 21.3306 111.441 22.4091C111.586 23.4669 111.721 24.535 111.845 25.6135H111.97C112.177 24.535 112.374 23.4669 112.561 22.4091C112.768 21.3306 112.976 20.2625 113.183 19.2048L115.361 9.71615H119.25L121.427 19.2048C121.635 20.221 121.832 21.2684 122.018 22.3469C122.226 23.4254 122.433 24.5142 122.641 25.6135H122.765C122.91 24.5142 123.045 23.4357 123.169 22.378C123.315 21.2995 123.46 20.2418 123.605 19.2048L125.005 9.71615H129.391L125.783 30H120.027L118.036 20.7914C117.87 20.0033 117.715 19.2151 117.57 18.427C117.445 17.6181 117.331 16.8404 117.227 16.0937H117.103C116.978 16.8404 116.844 17.6181 116.698 18.427C116.574 19.2151 116.429 20.0033 116.263 20.7914L114.365 30H108.703ZM134.579 30.3733C133.169 30.3733 132.049 29.9274 131.219 29.0356C130.39 28.123 129.975 27.0134 129.975 25.7068C129.975 24.0891 130.659 22.8239 132.028 21.9113C133.397 20.9988 135.606 20.3869 138.655 20.0758C138.613 19.3914 138.406 18.8522 138.033 18.4581C137.68 18.0433 137.079 17.8359 136.228 17.8359C135.585 17.8359 134.932 17.9604 134.268 18.2092C133.605 18.4581 132.899 18.8003 132.153 19.2359L130.504 16.2182C131.479 15.6167 132.516 15.1293 133.615 14.756C134.735 14.3827 135.896 14.196 137.099 14.196C139.07 14.196 140.584 14.7664 141.641 15.9071C142.699 17.0478 143.228 18.8003 143.228 21.1647V30H139.495L139.184 28.4134H139.059C138.416 28.9941 137.721 29.4711 136.975 29.8444C136.249 30.197 135.45 30.3733 134.579 30.3733ZM136.135 26.8268C136.653 26.8268 137.099 26.7127 137.473 26.4845C137.867 26.2357 138.261 25.9142 138.655 25.5201V22.8135C137.037 23.0209 135.917 23.3528 135.295 23.8091C134.673 24.2446 134.362 24.7631 134.362 25.3646C134.362 25.8623 134.517 26.2357 134.828 26.4845C135.16 26.7127 135.596 26.8268 136.135 26.8268ZM151.825 36.5643C150.622 36.5643 149.533 36.4294 148.558 36.1598C147.584 35.8902 146.806 35.465 146.225 34.8843C145.645 34.3036 145.354 33.5569 145.354 32.6444C145.354 31.4 146.09 30.363 147.563 29.5333V29.4089C147.169 29.1393 146.827 28.7971 146.536 28.3823C146.267 27.9675 146.132 27.4386 146.132 26.7956C146.132 26.2357 146.298 25.6964 146.63 25.1779C146.962 24.6594 147.376 24.2342 147.874 23.9024V23.778C147.335 23.4046 146.847 22.8654 146.412 22.1602C145.997 21.4551 145.79 20.6566 145.79 19.7647C145.79 18.5203 146.09 17.4937 146.692 16.6848C147.293 15.8552 148.081 15.233 149.056 14.8182C150.031 14.4034 151.068 14.196 152.167 14.196C153.08 14.196 153.878 14.3205 154.563 14.5693H160.194V17.8981H157.736C157.881 18.1263 157.995 18.4166 158.078 18.7692C158.182 19.1218 158.234 19.5055 158.234 19.9203C158.234 21.1025 157.964 22.0773 157.425 22.8447C156.886 23.612 156.16 24.1824 155.247 24.5557C154.335 24.929 153.308 25.1157 152.167 25.1157C151.566 25.1157 150.944 25.012 150.301 24.8046C149.927 25.1157 149.741 25.4994 149.741 25.9557C149.741 26.3497 149.917 26.6401 150.27 26.8268C150.622 27.0134 151.224 27.1068 152.074 27.1068H154.563C156.471 27.1068 157.923 27.4179 158.918 28.0401C159.934 28.6415 160.443 29.637 160.443 31.0266C160.443 32.0844 160.09 33.0281 159.385 33.8577C158.68 34.708 157.684 35.3717 156.398 35.8487C155.112 36.3257 153.588 36.5643 151.825 36.5643ZM152.167 22.3469C152.769 22.3469 153.267 22.1291 153.661 21.6936C154.075 21.258 154.283 20.6151 154.283 19.7647C154.283 18.9559 154.075 18.344 153.661 17.9292C153.267 17.4937 152.769 17.2759 152.167 17.2759C151.566 17.2759 151.058 17.4833 150.643 17.8981C150.249 18.3129 150.052 18.9351 150.052 19.7647C150.052 20.6151 150.249 21.258 150.643 21.6936C151.058 22.1291 151.566 22.3469 152.167 22.3469ZM152.541 33.7021C153.578 33.7021 154.428 33.5155 155.092 33.1421C155.755 32.7688 156.087 32.3229 156.087 31.8044C156.087 31.3274 155.88 31.0059 155.465 30.84C155.071 30.6741 154.49 30.5911 153.723 30.5911H152.136C151.618 30.5911 151.182 30.5704 150.83 30.5289C150.498 30.5081 150.207 30.4667 149.958 30.4044C149.398 30.9022 149.118 31.4103 149.118 31.9288C149.118 32.5096 149.43 32.9451 150.052 33.2355C150.695 33.5466 151.524 33.7021 152.541 33.7021ZM168.519 30.3733C167.046 30.3733 165.719 30.0519 164.537 29.4089C163.355 28.766 162.421 27.843 161.737 26.6401C161.052 25.4372 160.71 23.9854 160.71 22.2847C160.71 20.6047 161.052 19.1633 161.737 17.9604C162.442 16.7574 163.355 15.8345 164.475 15.1915C165.594 14.5279 166.766 14.196 167.99 14.196C169.463 14.196 170.676 14.5279 171.63 15.1915C172.605 15.8345 173.331 16.7159 173.808 17.8359C174.305 18.9351 174.554 20.1899 174.554 21.6002C174.554 21.9943 174.533 22.3884 174.492 22.7824C174.451 23.1558 174.409 23.4357 174.368 23.6224H165.128C165.335 24.7424 165.802 25.572 166.528 26.1112C167.254 26.6297 168.125 26.889 169.141 26.889C170.24 26.889 171.35 26.5468 172.47 25.8623L173.994 28.6312C173.206 29.1704 172.325 29.5956 171.35 29.9067C170.375 30.2178 169.431 30.3733 168.519 30.3733ZM165.097 20.6047H170.665C170.665 19.7544 170.458 19.0596 170.043 18.5203C169.649 17.9604 168.996 17.6804 168.083 17.6804C167.378 17.6804 166.746 17.9292 166.186 18.427C165.626 18.904 165.263 19.6299 165.097 20.6047ZM176.937 30V14.5693H180.67L180.981 16.5293H181.105C181.769 15.9071 182.495 15.3678 183.283 14.9116C184.092 14.4345 185.015 14.196 186.052 14.196C187.732 14.196 188.945 14.756 189.692 15.876C190.459 16.9752 190.843 18.4892 190.843 20.4181V30H186.27V21.0092C186.27 19.8892 186.114 19.1218 185.803 18.707C185.513 18.2922 185.036 18.0848 184.372 18.0848C183.791 18.0848 183.293 18.2196 182.879 18.4892C182.464 18.7381 182.008 19.1011 181.51 19.5781V30H176.937Z" fill="#FFB30E"/>
<defs>
<linearGradient id="paint0_linear_1_229" x1="15" y1="2.99982" x2="15" y2="20.4998" gradientUnits="userSpaceOnUse">
<stop stop-color="#FFD16D"/>
<stop offset="1" stop-color="#FF7A00"/>
</linearGradient>
</defs>
</svg>
